<?xml version="1.0" standalone="no"?>
<!DOCTYPE svg PUBLIC "-//W3C//DTD SVG 20010904//EN"
 "http://www.w3.org/TR/2001/REC-SVG-20010904/DTD/svg10.dtd">
<svg version="1.0" xmlns="http://www.w3.org/2000/svg"
 width="500.000000pt" height="500.000000pt" viewBox="0 0 500.000000 500.000000"
 preserveAspectRatio="xMidYMid meet">
<metadata>
Created by potrace 1.14, written by Peter Selinger 2001-2017
</metadata>
<g transform="translate(0.000000,500.000000) scale(0.100000,-0.100000)"
fill="#000000" stroke="none">
<path d="M2458 4375 c-2 -2 -15 -6 -28 -8 -14 -3 -43 -13 -65 -23 -22 -9 -42
-18 -45 -18 -3 -1 -21 -11 -40 -22 -19 -12 -64 -34 -100 -50 -36 -16 -66 -32
-68 -36 -2 -4 -10 -8 -19 -8 -8 0 -44 -13 -80 -30 -35 -16 -66 -30 -68 -30 -3
0 -30 -12 -62 -26 -31 -15 -62 -27 -67 -28 -6 -1 -21 -8 -33 -14 -13 -7 -23
-10 -23 -6 0 3 -7 0 -16 -7 -9 -7 -21 -14 -28 -16 -6 -1 -63 -22 -126 -46 -63
-24 -117 -44 -120 -44 -3 -1 -18 -7 -35 -13 -41 -15 -49 -17 -60 -20 -5 -1
-16 -6 -22 -12 -7 -6 -13 -7 -13 -3 0 4 -6 3 -12 -2 -10 -8 -69 -31 -98 -38
-92 -24 -180 -150 -197 -285 -13 -105 -19 -473 -9 -650 7 -138 12 -187 30
-300 2 -14 7 -52 11 -85 4 -33 10 -67 14 -75 4 -8 7 -22 6 -30 -1 -8 2 -22 7
-31 4 -9 9 -32 12 -50 2 -19 9 -45 14 -59 5 -14 10 -29 11 -35 5 -31 24 -92
33 -102 6 -7 8 -13 5 -13 -4 0 12 -51 34 -112 23 -62 43 -121 46 -130 3 -10 9
-18 12 -18 4 0 8 -6 8 -12 0 -18 89 -194 124 -246 16 -24 29 -45 29 -48 0 -5
107 -151 124 -170 6 -7 27 -31 46 -55 41 -52 218 -229 279 -279 23 -19 48 -40
54 -45 95 -80 368 -238 472 -272 70 -23 98 -26 216 -27 l135 -1 95 58 c127 78
130 80 148 95 9 7 50 39 91 70 41 31 84 64 95 72 35 27 240 234 270 274 17 21
37 46 45 56 36 44 47 59 85 115 57 85 129 210 165 285 17 36 37 77 45 92 8 14
15 33 15 41 0 9 3 17 8 19 13 6 112 257 127 323 3 11 15 61 29 110 13 50 27
104 30 120 2 17 7 41 10 55 12 54 33 216 42 320 12 139 15 234 16 490 1 239
-2 305 -16 380 -5 31 -38 96 -59 118 -12 13 -35 29 -52 37 -47 20 -180 68
-180 65 0 -1 -18 5 -40 14 -22 9 -49 17 -60 19 -11 1 -27 7 -35 12 -8 5 -25
11 -37 13 -13 1 -52 16 -88 32 -36 16 -65 27 -65 25 0 -4 -23 5 -130 52 -25
11 -65 27 -90 37 -25 10 -58 25 -75 34 -45 23 -56 28 -107 51 -26 12 -50 21
-52 21 -3 0 -47 20 -98 44 -108 52 -129 57 -303 71 -33 3 -72 7 -87 9 -15 2
-28 3 -30 1z"/>
</g>
</svg>
